<svg xmlns="http://www.w3.org/2000/svg" xmlns:xlink="http://www.w3.org/1999/xlink" width="500" zoomAndPan="magnify" viewBox="0 0 375 374.999991" height="500" preserveAspectRatio="xMidYMid meet" version="1.0"><defs><g/><clipPath id="0622b7e61a"><path d="M 22 0.5 L 323 0.5 L 323 300.488281 L 22 300.488281 Z M 22 0.5 " clip-rule="nonzero"/></clipPath><clipPath id="6425c3cec5"><path d="M 42 105 L 303 105 L 303 221 L 42 221 Z M 42 105 " clip-rule="nonzero"/></clipPath><clipPath id="5fb7c73359"><path d="M 172.464844 20.347656 C 244.308594 20.347656 302.613281 78.578125 302.613281 150.492188 C 302.613281 222.339844 244.378906 280.640625 172.464844 280.640625 C 100.621094 280.640625 42.320312 222.40625 42.320312 150.492188 C 42.320312 78.648438 100.621094 20.347656 172.464844 20.347656 Z M 172.464844 20.347656 " clip-rule="nonzero"/></clipPath><clipPath id="dcb022e2a1"><path d="M 0.585938 100 L 344.414062 100 L 344.414062 216 L 0.585938 216 Z M 0.585938 100 " clip-rule="nonzero"/></clipPath><clipPath id="b1d098e6ed"><rect x="0" width="181" y="0" height="69"/></clipPath><clipPath id="2f950937c3"><rect x="0" width="135" y="0" height="16"/></clipPath><clipPath id="b345351ff2"><rect x="0" width="346" y="0" height="302"/></clipPath></defs><g transform="matrix(1, 0, 0, 1, 15, 37)"><g clip-path="url(#b345351ff2)"><g clip-path="url(#0622b7e61a)"><path fill="#231f20" d="M 172.464844 0.546875 C 255.242188 0.546875 322.410156 67.648438 322.410156 150.492188 C 322.410156 233.269531 255.3125 300.441406 172.464844 300.441406 C 89.6875 300.441406 22.519531 233.339844 22.519531 150.492188 C 22.519531 67.648438 89.6875 0.546875 172.464844 0.546875 Z M 172.464844 0.546875 " fill-opacity="1" fill-rule="evenodd"/></g><path fill="#f6eec7" d="M 172.464844 12.097656 C 248.917969 12.097656 310.863281 74.042969 310.863281 150.492188 C 310.863281 226.945312 248.917969 288.890625 172.464844 288.890625 C 96.015625 288.890625 34.070312 226.945312 34.070312 150.492188 C 34.070312 74.042969 96.015625 12.097656 172.464844 12.097656 Z M 172.464844 12.097656 " fill-opacity="1" fill-rule="evenodd"/><path fill="#231f20" d="M 172.464844 16.566406 C 246.441406 16.566406 306.324219 76.515625 306.324219 150.425781 C 306.324219 224.402344 246.375 284.28125 172.464844 284.28125 C 98.558594 284.28125 38.605469 224.402344 38.605469 150.492188 C 38.605469 76.515625 98.488281 16.566406 172.464844 16.566406 Z M 172.464844 16.566406 " fill-opacity="1" fill-rule="evenodd"/><path fill="#ff3131" d="M 172.464844 20.347656 C 244.308594 20.347656 302.613281 78.578125 302.613281 150.492188 C 302.613281 222.339844 244.378906 280.640625 172.464844 280.640625 C 100.621094 280.640625 42.320312 222.40625 42.320312 150.492188 C 42.320312 78.648438 100.621094 20.347656 172.464844 20.347656 Z M 172.464844 20.347656 " fill-opacity="1" fill-rule="evenodd"/><g clip-path="url(#6425c3cec5)"><g clip-path="url(#5fb7c73359)"><path fill="#ff2828" d="M 10.144531 105.738281 L 334.855469 105.738281 C 340.082031 105.738281 344.414062 110 344.414062 115.292969 L 344.414062 210.582031 C 344.414062 215.808594 340.148438 220.136719 334.855469 220.136719 L 281.574219 220.136719 C 280.472656 220.136719 279.511719 220 278.410156 219.589844 C 246.511719 208.382812 206.085938 204.875 172.464844 204.875 C 138.847656 204.875 98.421875 208.382812 66.519531 219.589844 C 65.488281 219.933594 64.457031 220.136719 63.359375 220.136719 L 10.144531 220.136719 C 4.917969 220.136719 0.585938 215.875 0.585938 210.582031 L 0.585938 115.222656 C 0.585938 110 4.851562 105.738281 10.144531 105.738281 Z M 10.144531 105.738281 " fill-opacity="1" fill-rule="evenodd"/></g></g><path fill="#231f20" d="M 334.785156 215.1875 L 295.53125 209.964844 L 294.429688 235.058594 Z M 334.785156 215.1875 " fill-opacity="1" fill-rule="evenodd"/><path fill="#231f20" d="M 10.144531 215.1875 L 49.402344 209.964844 L 50.5 235.058594 Z M 10.144531 215.1875 " fill-opacity="1" fill-rule="evenodd"/><path fill="#231f20" d="M 254.484375 236.570312 C 255.378906 236.570312 256.136719 237.324219 256.136719 238.21875 C 256.136719 239.113281 255.378906 239.871094 254.484375 239.871094 C 253.59375 239.871094 252.835938 239.113281 252.835938 238.21875 C 252.835938 237.257812 253.523438 236.570312 254.484375 236.570312 Z M 254.484375 236.570312 " fill-opacity="1" fill-rule="evenodd"/><path fill="#231f20" d="M 90.445312 236.570312 C 91.339844 236.570312 92.09375 237.324219 92.09375 238.21875 C 92.09375 239.113281 91.339844 239.871094 90.445312 239.871094 C 89.550781 239.871094 88.796875 239.113281 88.796875 238.21875 C 88.863281 237.257812 89.550781 236.570312 90.445312 236.570312 Z M 90.445312 236.570312 " fill-opacity="1" fill-rule="evenodd"/><g clip-path="url(#dcb022e2a1)"><path fill="#231f20" d="M 10.144531 100.855469 L 334.855469 100.855469 C 340.082031 100.855469 344.414062 105.117188 344.414062 110.410156 L 344.414062 205.699219 C 344.414062 210.925781 340.148438 215.257812 334.855469 215.257812 L 281.574219 215.257812 C 280.472656 215.257812 279.511719 215.121094 278.410156 214.707031 C 246.511719 203.433594 206.085938 199.925781 172.464844 199.925781 C 138.847656 199.925781 98.421875 203.433594 66.519531 214.636719 C 65.488281 214.980469 64.457031 215.1875 63.359375 215.1875 L 10.144531 215.1875 C 4.851562 215.1875 0.585938 210.925781 0.585938 205.632812 L 0.585938 110.34375 C 0.585938 105.117188 4.851562 100.855469 10.144531 100.855469 Z M 10.144531 100.855469 " fill-opacity="1" fill-rule="evenodd"/></g><path fill="#f6eec7" d="M 10.144531 110.34375 L 334.855469 110.34375 L 334.855469 205.632812 L 281.574219 205.632812 C 255.035156 196.28125 215.984375 190.4375 172.464844 190.4375 C 128.945312 190.4375 89.964844 196.351562 63.359375 205.632812 L 10.144531 205.632812 Z M 10.144531 110.34375 " fill-opacity="1" fill-rule="evenodd"/><path fill="#231f20" d="M 17.089844 102.09375 C 16.949219 102.09375 16.8125 102.09375 16.675781 102.023438 C 15.988281 101.816406 15.644531 101.128906 15.851562 100.441406 C 19.839844 87.929688 25.339844 75.898438 32.214844 64.625 C 32.558594 64.003906 33.382812 63.867188 33.933594 64.210938 C 34.550781 64.554688 34.6875 65.378906 34.34375 65.929688 C 27.605469 77 22.175781 88.824219 18.257812 101.199219 C 18.121094 101.75 17.636719 102.09375 17.089844 102.09375 Z M 24.445312 102.09375 C 24.308594 102.09375 24.167969 102.09375 24.03125 102.023438 C 23.34375 101.816406 23 101.0625 23.207031 100.441406 C 26.164062 91.710938 29.875 83.117188 34.34375 75.003906 C 34.6875 74.386719 35.445312 74.179688 36.0625 74.523438 C 36.683594 74.867188 36.886719 75.625 36.542969 76.242188 C 32.144531 84.21875 28.5 92.671875 25.613281 101.269531 C 25.40625 101.75 24.925781 102.09375 24.445312 102.09375 Z M 24.445312 102.09375 " fill-opacity="1" fill-rule="nonzero"/><path fill="#231f20" d="M 320.488281 102.09375 C 319.9375 102.09375 319.457031 101.75 319.316406 101.199219 C 316.429688 92.605469 312.785156 84.148438 308.386719 76.171875 C 308.042969 75.554688 308.25 74.796875 308.867188 74.453125 C 309.488281 74.109375 310.242188 74.316406 310.585938 74.9375 C 315.054688 83.046875 318.769531 91.640625 321.722656 100.375 C 321.929688 101.0625 321.585938 101.75 320.898438 101.957031 C 320.761719 102.09375 320.625 102.09375 320.488281 102.09375 Z M 327.84375 102.09375 C 327.292969 102.09375 326.8125 101.75 326.605469 101.199219 C 322.6875 88.890625 317.253906 77 310.519531 65.929688 C 310.175781 65.3125 310.3125 64.554688 310.929688 64.210938 C 311.550781 63.867188 312.304688 64.003906 312.648438 64.625 C 319.523438 75.828125 325.023438 87.929688 329.011719 100.441406 C 329.21875 101.128906 328.875 101.816406 328.1875 102.023438 C 328.117188 102.09375 327.980469 102.09375 327.84375 102.09375 Z M 327.84375 102.09375 " fill-opacity="1" fill-rule="nonzero"/><path fill="#231f20" d="M 156.378906 248.328125 C 156.378906 248.328125 153.148438 252.175781 151.496094 253.34375 C 151.496094 253.34375 149.847656 254.582031 147.921875 253.207031 C 147.921875 253.207031 149.847656 254.101562 151.152344 253.070312 C 152.460938 252.039062 156.378906 248.328125 156.378906 248.328125 Z M 155.347656 249.976562 C 154.523438 250.800781 152.597656 253 151.773438 253.550781 C 150.328125 254.582031 148.472656 254.375 147.578125 253.484375 C 147.027344 252.933594 147.027344 252.039062 147.234375 251.351562 C 147.714844 250.183594 148.882812 249.839844 149.914062 249.359375 C 153.007812 247.914062 165.867188 234.507812 169.097656 231.34375 C 171.089844 229.488281 173.015625 227.5625 175.007812 225.707031 C 177.347656 223.507812 177.070312 223.78125 176.589844 220.550781 C 176.523438 219.863281 176.589844 220.207031 176.523438 219.792969 C 176.453125 218.558594 177.070312 217.9375 178.171875 216.90625 L 187.109375 208.3125 C 188.414062 207.074219 190.203125 205.21875 191.578125 204.050781 C 192.335938 203.363281 192.746094 203.914062 192.539062 204.394531 C 192.335938 204.875 182.089844 214.84375 180.714844 216.289062 C 179.546875 217.527344 180.648438 218.625 181.816406 217.800781 C 182.433594 217.320312 189.789062 209.824219 190.753906 208.933594 C 191.648438 208.039062 192.816406 206.730469 193.710938 205.976562 C 194.257812 205.496094 194.808594 205.90625 194.464844 206.527344 C 194.054688 207.28125 181.679688 218.96875 181.402344 219.933594 C 181.265625 220.414062 181.472656 221.03125 182.160156 221.03125 C 182.777344 221.03125 183.191406 220.550781 183.671875 220.070312 L 192.609375 211.132812 C 193.570312 210.167969 194.535156 209.136719 195.566406 208.175781 C 196.460938 207.351562 196.734375 208.039062 196.597656 208.382812 C 196.460938 208.863281 189.929688 215.1875 189.242188 215.875 C 188.277344 216.839844 187.316406 217.800781 186.285156 218.832031 C 185.527344 219.589844 183.808594 220.894531 184.289062 221.789062 C 184.566406 222.269531 185.183594 222.269531 185.734375 221.925781 C 186.285156 221.582031 195.496094 212.230469 196.117188 211.542969 C 196.597656 211.0625 197.078125 210.511719 197.558594 210.101562 C 198.179688 209.550781 198.796875 209.964844 198.453125 210.582031 C 198.109375 211.132812 188.621094 220.894531 187.039062 222.542969 C 186.285156 223.300781 184.976562 224.882812 184.152344 225.433594 C 182.160156 226.808594 179.960938 224.949219 178.242188 225.84375 C 177.554688 226.1875 173.429688 230.726562 172.535156 231.621094 C 166.898438 237.601562 161.121094 243.855469 155.347656 249.976562 Z M 155.347656 249.976562 " fill-opacity="1" fill-rule="evenodd"/><path fill="#231f20" d="M 186.835938 248.808594 C 186.835938 248.808594 189.929688 252.453125 191.507812 253.621094 C 191.507812 253.621094 193.089844 254.789062 194.945312 253.484375 C 194.945312 253.484375 193.160156 254.308594 191.851562 253.34375 C 190.617188 252.3125 186.835938 248.808594 186.835938 248.808594 Z M 160.226562 211.40625 C 158.097656 209.34375 152.527344 205.90625 149.640625 206.25 C 148.332031 206.386719 147.164062 206.527344 146.546875 208.175781 C 146.410156 208.65625 146.269531 209.480469 146.269531 209.894531 C 146.269531 211.476562 147.300781 213.746094 148.058594 215.1875 C 149.847656 218.625 153.078125 222.820312 157.132812 223.714844 C 157.617188 223.78125 159.609375 224.125 160.226562 224.058594 C 160.503906 224.058594 160.433594 224.058594 160.640625 224.058594 C 161.328125 224.125 161.535156 224.058594 162.359375 224.332031 C 163.183594 224.605469 163.527344 224.882812 164.148438 225.570312 C 171.984375 233.820312 179.960938 242 187.796875 250.25 C 188.554688 251.078125 190.410156 253.207031 191.234375 253.6875 C 192.609375 254.71875 194.398438 254.515625 195.222656 253.621094 C 195.773438 253.070312 195.703125 252.246094 195.566406 251.558594 C 195.085938 250.457031 193.984375 250.113281 192.953125 249.632812 C 189.378906 247.914062 171.160156 229.144531 167.171875 225.292969 C 165.589844 223.78125 164.421875 223.09375 164.214844 220.964844 L 164.078125 219.175781 C 164.078125 216.355469 162.910156 213.949219 160.226562 211.40625 Z M 160.226562 211.40625 " fill-opacity="1" fill-rule="evenodd"/><path fill="#231f20" d="M 199.484375 230.105469 C 200.515625 230.105469 201.339844 230.933594 201.339844 231.964844 C 201.339844 232.996094 200.515625 233.820312 199.484375 233.820312 C 198.453125 233.820312 197.628906 232.996094 197.628906 231.964844 C 197.628906 230.933594 198.453125 230.105469 199.484375 230.105469 Z M 199.484375 230.105469 " fill-opacity="1" fill-rule="evenodd"/><path fill="#231f20" d="M 206.496094 230.105469 C 207.527344 230.105469 208.355469 230.933594 208.355469 231.964844 C 208.355469 232.996094 207.527344 233.820312 206.496094 233.820312 C 205.464844 233.820312 204.640625 232.996094 204.640625 231.964844 C 204.640625 230.933594 205.464844 230.105469 206.496094 230.105469 Z M 206.496094 230.105469 " fill-opacity="1" fill-rule="evenodd"/><path fill="#231f20" d="M 213.511719 230.105469 C 214.542969 230.105469 215.367188 230.933594 215.367188 231.964844 C 215.367188 232.996094 214.542969 233.820312 213.511719 233.820312 C 212.480469 233.820312 211.652344 232.996094 211.652344 231.964844 C 211.652344 230.933594 212.480469 230.105469 213.511719 230.105469 Z M 213.511719 230.105469 " fill-opacity="1" fill-rule="evenodd"/><path fill="#231f20" d="M 131.421875 230.105469 C 132.453125 230.105469 133.277344 230.933594 133.277344 231.964844 C 133.277344 232.996094 132.453125 233.820312 131.421875 233.820312 C 130.390625 233.820312 129.566406 232.996094 129.566406 231.964844 C 129.566406 230.933594 130.390625 230.105469 131.421875 230.105469 Z M 131.421875 230.105469 " fill-opacity="1" fill-rule="evenodd"/><path fill="#231f20" d="M 138.433594 230.105469 C 139.464844 230.105469 140.289062 230.933594 140.289062 231.964844 C 140.289062 232.996094 139.464844 233.820312 138.433594 233.820312 C 137.402344 233.820312 136.578125 232.996094 136.578125 231.964844 C 136.578125 230.933594 137.402344 230.105469 138.433594 230.105469 Z M 138.433594 230.105469 " fill-opacity="1" fill-rule="evenodd"/><path fill="#231f20" d="M 145.445312 230.105469 C 146.476562 230.105469 147.300781 230.933594 147.300781 231.964844 C 147.300781 232.996094 146.476562 233.820312 145.445312 233.820312 C 144.414062 233.820312 143.589844 232.996094 143.589844 231.964844 C 143.589844 230.933594 144.414062 230.105469 145.445312 230.105469 Z M 145.445312 230.105469 " fill-opacity="1" fill-rule="evenodd"/><path fill="#231f20" d="M 167.996094 30.730469 C 167.996094 30.730469 166.828125 29.078125 166.554688 28.183594 C 166.277344 27.292969 165.726562 25.777344 171.226562 25.777344 C 171.226562 25.777344 167.035156 26.121094 167.242188 27.496094 C 167.445312 28.804688 167.996094 30.730469 167.996094 30.730469 Z M 205.535156 45.441406 C 205.535156 45.441406 205.191406 47.574219 203.609375 48.605469 C 203.609375 48.605469 210.898438 46.886719 212.617188 53.761719 C 214.335938 60.636719 198.933594 62.90625 198.933594 62.90625 C 198.933594 62.90625 198.796875 57.128906 200.308594 56.234375 C 201.824219 55.410156 209.453125 53.761719 208.011719 52.589844 C 206.910156 51.699219 204.847656 51.699219 203.679688 51.765625 L 203.679688 53.96875 C 202.992188 54.171875 202.304688 54.378906 201.617188 54.65625 C 201.066406 54.859375 200.378906 55.066406 199.898438 55.34375 C 198.660156 56.03125 198.316406 58.023438 198.179688 59.328125 C 198.042969 60.5 197.972656 61.734375 197.972656 62.972656 C 197.972656 63.316406 198.109375 63.523438 198.316406 63.730469 C 198.523438 63.9375 198.867188 64.003906 199.140625 63.9375 C 200.035156 63.796875 200.929688 63.59375 201.753906 63.453125 C 202.441406 63.316406 203.058594 63.109375 203.746094 62.972656 L 203.746094 66.34375 C 199.140625 67.03125 194.121094 68.472656 191.648438 71.15625 C 191.027344 71.5 190.410156 72.046875 190.203125 72.667969 C 190.132812 72.941406 190.066406 73.21875 190.066406 73.492188 C 190.066406 73.90625 190.203125 74.179688 190.410156 74.453125 C 190.339844 74.660156 190.339844 74.867188 190.410156 75.074219 C 190.410156 75.140625 190.476562 75.28125 190.476562 75.347656 C 190.410156 75.347656 190.339844 75.347656 190.339844 75.347656 C 187.933594 75.828125 186.421875 77.480469 185.871094 79.816406 C 185.046875 83.046875 187.933594 85.042969 190.546875 86.140625 C 190.890625 86.28125 191.234375 86.417969 191.648438 86.554688 L 191.578125 96.453125 C 189.378906 97.003906 186.835938 97.347656 183.808594 97.484375 L 174.183594 97.625 L 174.183594 97.691406 L 171.023438 97.691406 L 171.023438 97.625 L 161.398438 97.484375 C 158.371094 97.347656 155.757812 97.003906 153.628906 96.453125 L 153.558594 86.554688 C 153.902344 86.417969 154.316406 86.28125 154.660156 86.140625 C 156.515625 85.386719 158.578125 84.148438 159.265625 82.15625 C 159.539062 81.398438 159.539062 80.574219 159.335938 79.816406 C 158.785156 77.480469 157.203125 75.828125 154.867188 75.347656 C 154.796875 75.347656 154.726562 75.347656 154.726562 75.347656 C 154.726562 75.28125 154.796875 75.140625 154.796875 75.074219 C 154.867188 74.867188 154.796875 74.660156 154.796875 74.453125 C 155.003906 74.179688 155.140625 73.835938 155.140625 73.492188 C 155.140625 73.21875 155.140625 72.941406 155.003906 72.667969 C 154.796875 72.046875 154.179688 71.5 153.558594 71.15625 C 151.085938 68.472656 146.066406 67.03125 141.457031 66.34375 L 141.457031 62.972656 C 142.144531 63.179688 142.765625 63.316406 143.453125 63.453125 C 144.347656 63.660156 145.238281 63.867188 146.066406 63.9375 C 146.410156 64.003906 146.683594 63.867188 146.890625 63.730469 C 147.097656 63.523438 147.234375 63.25 147.234375 62.972656 C 147.234375 61.804688 147.164062 60.5 147.027344 59.328125 C 146.890625 58.023438 146.546875 56.03125 145.308594 55.34375 C 144.828125 55.066406 144.140625 54.859375 143.589844 54.65625 C 142.902344 54.449219 142.214844 54.242188 141.457031 53.96875 L 141.457031 51.765625 C 140.289062 51.699219 138.160156 51.699219 137.128906 52.589844 C 135.683594 53.761719 143.316406 55.34375 144.828125 56.234375 C 146.339844 57.0625 146.203125 62.90625 146.203125 62.90625 C 146.203125 62.90625 130.871094 60.636719 132.519531 53.761719 C 134.238281 46.886719 141.527344 48.605469 141.527344 48.605469 C 140.015625 47.503906 139.601562 45.441406 139.601562 45.441406 C 155.621094 50.390625 189.308594 50.390625 205.535156 45.441406 Z M 145.722656 49.636719 C 145.722656 49.636719 160.433594 54.105469 192.402344 50.527344 C 192.402344 50.527344 174.320312 53.417969 163.390625 52.660156 C 152.460938 51.972656 145.722656 49.636719 145.722656 49.636719 Z M 187.867188 35.402344 C 187.867188 35.402344 196.460938 36.230469 203.746094 41.796875 C 203.746094 41.796875 199.003906 45.097656 181.265625 45.441406 C 181.265625 45.441406 195.632812 44.824219 201.824219 41.589844 C 201.824219 41.589844 201.890625 41.386719 201.546875 41.109375 C 201.273438 40.835938 195.496094 37.261719 187.867188 35.402344 Z M 171.984375 24.886719 L 177.140625 24.886719 C 177.140625 24.886719 179.890625 24.816406 179.753906 27.359375 C 179.617188 29.699219 177.277344 30.453125 176.867188 33.617188 C 188.964844 34.167969 200.308594 36.777344 204.433594 41.589844 C 204.433594 41.589844 205.742188 42.277344 205.949219 42.898438 C 208.011719 48.464844 136.851562 48.464844 138.914062 42.898438 C 139.121094 42.277344 140.425781 41.589844 140.425781 41.589844 C 144.550781 36.777344 155.828125 34.167969 167.996094 33.617188 C 167.652344 30.523438 165.246094 29.699219 165.109375 27.359375 C 164.972656 24.816406 167.722656 24.886719 167.722656 24.886719 Z M 171.984375 24.886719 " fill-opacity="1" fill-rule="evenodd"/><path fill="#231f20" d="M 210.484375 65.242188 C 210.484375 65.242188 209.730469 64.140625 209.523438 63.59375 C 209.316406 63.042969 208.972656 62.011719 212.546875 62.011719 C 212.546875 62.011719 209.796875 62.285156 209.933594 63.109375 C 210.140625 64.003906 210.484375 65.242188 210.484375 65.242188 Z M 234.960938 74.796875 C 234.960938 74.796875 234.683594 76.171875 233.722656 76.859375 C 233.722656 76.859375 238.464844 75.691406 239.566406 80.230469 C 240.667969 84.699219 230.628906 86.210938 230.628906 86.210938 C 230.628906 86.210938 230.558594 82.429688 231.523438 81.878906 C 232.484375 81.328125 237.503906 80.230469 236.542969 79.542969 C 235.855469 78.992188 234.480469 78.992188 233.722656 78.992188 L 233.722656 80.4375 C 233.242188 80.574219 232.828125 80.710938 232.347656 80.847656 C 232.003906 80.984375 231.523438 81.125 231.179688 81.328125 C 230.355469 81.8125 230.148438 83.117188 230.011719 83.941406 C 229.941406 84.699219 229.871094 85.523438 229.871094 86.28125 C 229.871094 86.484375 229.941406 86.691406 230.148438 86.761719 C 230.285156 86.898438 230.492188 86.96875 230.699219 86.898438 C 231.246094 86.828125 231.867188 86.691406 232.417969 86.554688 C 232.828125 86.484375 233.308594 86.347656 233.722656 86.210938 L 233.792969 99.546875 C 233.792969 99.546875 234.753906 108.28125 220.660156 108.832031 L 214.402344 108.96875 L 214.402344 109.035156 L 212.339844 109.035156 L 212.339844 108.96875 L 206.085938 108.832031 C 192.058594 108.210938 192.953125 99.546875 192.953125 99.546875 L 193.023438 86.210938 C 193.433594 86.347656 193.847656 86.417969 194.328125 86.554688 C 194.878906 86.691406 195.496094 86.828125 196.046875 86.898438 C 196.253906 86.898438 196.460938 86.898438 196.597656 86.761719 C 196.734375 86.625 196.804688 86.484375 196.871094 86.28125 C 196.871094 85.523438 196.871094 84.699219 196.734375 83.941406 C 196.597656 83.117188 196.390625 81.8125 195.566406 81.328125 C 195.222656 81.125 194.808594 80.984375 194.398438 80.847656 C 193.914062 80.710938 193.503906 80.574219 193.023438 80.4375 L 193.023438 78.992188 C 192.265625 78.992188 190.890625 78.992188 190.203125 79.542969 C 189.242188 80.296875 194.191406 81.328125 195.222656 81.878906 C 196.183594 82.429688 196.117188 86.210938 196.117188 86.210938 C 196.117188 86.210938 186.078125 84.765625 187.179688 80.230469 C 188.277344 75.761719 193.023438 76.859375 193.023438 76.859375 C 191.992188 76.171875 191.785156 74.796875 191.785156 74.796875 C 202.441406 78.03125 224.441406 78.03125 234.960938 74.796875 Z M 195.976562 77.617188 C 195.976562 77.617188 205.535156 80.574219 226.433594 78.234375 C 226.433594 78.234375 214.609375 80.09375 207.527344 79.609375 C 200.378906 79.0625 195.976562 77.617188 195.976562 77.617188 Z M 223.480469 68.265625 C 223.480469 68.265625 229.117188 68.816406 233.859375 72.390625 C 233.859375 72.390625 230.765625 74.523438 219.214844 74.796875 C 219.214844 74.796875 228.566406 74.386719 232.621094 72.324219 C 232.621094 72.324219 232.621094 72.1875 232.484375 71.980469 C 232.210938 71.84375 228.429688 69.503906 223.480469 68.265625 Z M 128.601562 65.242188 C 128.601562 65.242188 127.847656 64.140625 127.640625 63.59375 C 127.433594 63.042969 127.089844 62.011719 130.664062 62.011719 C 130.664062 62.011719 127.914062 62.285156 128.050781 63.109375 C 128.191406 64.003906 128.601562 65.242188 128.601562 65.242188 Z M 153.078125 74.796875 C 153.078125 74.796875 152.804688 76.171875 151.839844 76.859375 C 151.839844 76.859375 156.585938 75.691406 157.683594 80.230469 C 158.785156 84.699219 148.746094 86.210938 148.746094 86.210938 C 148.746094 86.210938 148.675781 82.429688 149.640625 81.878906 C 150.601562 81.328125 155.621094 80.230469 154.660156 79.542969 C 153.972656 78.992188 152.597656 78.992188 151.839844 78.992188 L 151.839844 80.4375 C 151.359375 80.574219 150.945312 80.710938 150.464844 80.847656 C 150.121094 80.984375 149.640625 81.125 149.296875 81.328125 C 148.472656 81.8125 148.265625 83.117188 148.128906 83.941406 C 148.058594 84.699219 147.988281 85.523438 147.988281 86.28125 C 147.988281 86.484375 148.058594 86.691406 148.265625 86.761719 C 148.402344 86.898438 148.609375 86.96875 148.816406 86.898438 C 149.367188 86.828125 149.984375 86.691406 150.535156 86.554688 C 150.945312 86.484375 151.429688 86.347656 151.839844 86.210938 L 151.910156 99.546875 C 151.910156 99.546875 152.871094 108.28125 138.777344 108.832031 L 132.519531 108.96875 L 132.519531 109.035156 L 130.457031 109.035156 L 130.457031 108.96875 L 124.203125 108.832031 C 110.175781 108.210938 111.070312 99.546875 111.070312 99.546875 L 111.140625 86.210938 C 111.550781 86.347656 111.964844 86.417969 112.445312 86.554688 C 112.996094 86.691406 113.613281 86.828125 114.164062 86.898438 C 114.371094 86.898438 114.578125 86.898438 114.714844 86.761719 C 114.851562 86.625 114.921875 86.484375 114.988281 86.28125 C 114.988281 85.523438 114.988281 84.699219 114.851562 83.941406 C 114.714844 83.117188 114.507812 81.8125 113.683594 81.328125 C 113.339844 81.125 112.925781 80.984375 112.515625 80.847656 C 112.035156 80.710938 111.621094 80.574219 111.140625 80.4375 L 111.140625 78.992188 C 110.382812 78.992188 109.007812 78.992188 108.320312 79.542969 C 107.359375 80.296875 112.308594 81.328125 113.339844 81.878906 C 114.300781 82.429688 114.234375 86.210938 114.234375 86.210938 C 114.234375 86.210938 104.195312 84.765625 105.296875 80.230469 C 106.394531 75.761719 111.140625 76.859375 111.140625 76.859375 C 110.109375 76.171875 109.902344 74.796875 109.902344 74.796875 C 120.488281 78.03125 142.488281 78.03125 153.078125 74.796875 Z M 114.097656 77.617188 C 114.097656 77.617188 123.652344 80.574219 144.550781 78.234375 C 144.550781 78.234375 132.726562 80.09375 125.644531 79.609375 C 118.425781 79.0625 114.097656 77.617188 114.097656 77.617188 Z M 141.527344 68.265625 C 141.527344 68.265625 147.164062 68.816406 151.910156 72.390625 C 151.910156 72.390625 148.816406 74.523438 137.265625 74.796875 C 137.265625 74.796875 146.613281 74.386719 150.671875 72.324219 C 150.671875 72.324219 150.671875 72.1875 150.535156 71.980469 C 150.328125 71.84375 146.546875 69.503906 141.527344 68.265625 Z M 131.214844 61.460938 L 134.515625 61.460938 C 134.515625 61.460938 136.300781 61.390625 136.234375 63.042969 C 136.164062 64.554688 134.582031 65.105469 134.378906 67.097656 C 142.285156 67.441406 149.640625 69.160156 152.320312 72.253906 C 152.320312 72.253906 153.148438 72.734375 153.351562 73.078125 C 154.726562 76.722656 108.253906 76.722656 109.628906 73.078125 C 109.765625 72.667969 110.660156 72.253906 110.660156 72.253906 C 113.339844 69.160156 120.695312 67.375 128.601562 67.097656 C 128.328125 65.035156 126.816406 64.554688 126.746094 63.042969 C 126.675781 61.390625 128.464844 61.460938 128.464844 61.460938 Z M 213.097656 61.460938 L 216.398438 61.460938 C 216.398438 61.460938 218.183594 61.390625 218.117188 63.042969 C 218.046875 64.554688 216.464844 65.105469 216.261719 67.097656 C 224.167969 67.441406 231.523438 69.160156 234.203125 72.253906 C 234.203125 72.253906 235.027344 72.734375 235.234375 73.078125 C 236.609375 76.722656 190.132812 76.722656 191.507812 73.078125 C 191.648438 72.667969 192.539062 72.253906 192.539062 72.253906 C 195.222656 69.160156 202.578125 67.375 210.484375 67.097656 C 210.210938 65.035156 208.699219 64.554688 208.628906 63.042969 C 208.558594 61.390625 210.347656 61.460938 210.347656 61.460938 Z M 213.097656 61.460938 " fill-opacity="1" fill-rule="evenodd"/><g transform="matrix(1, 0, 0, 1, 82, 119)"><g clip-path="url(#b1d098e6ed)"><g fill="#231f20" fill-opacity="1"><g transform="translate(0.797889, 50.585236)"><g><path d="M 21.140625 10.375 C 19.722656 9.4375 18.414062 8.707031 17.21875 8.1875 C 16.019531 7.664062 14.765625 7.273438 13.453125 7.015625 C 12.148438 6.753906 10.617188 6.546875 8.859375 6.390625 L 8.859375 0.34375 C 6.460938 -0.1875 4.628906 -1.441406 3.359375 -3.421875 C 2.085938 -5.398438 1.453125 -8.296875 1.453125 -12.109375 L 1.453125 -32.75 C 1.453125 -37.269531 2.320312 -40.507812 4.0625 -42.46875 C 5.800781 -44.4375 8.335938 -45.421875 11.671875 -45.421875 C 15.035156 -45.421875 17.582031 -44.4375 19.3125 -42.46875 C 21.050781 -40.507812 21.921875 -37.269531 21.921875 -32.75 L 21.921875 -12.109375 C 21.921875 -8.265625 21.285156 -5.359375 20.015625 -3.390625 C 18.742188 -1.429688 16.894531 -0.207031 14.46875 0.28125 C 15.851562 0.46875 17.050781 0.773438 18.0625 1.203125 C 19.070312 1.628906 20.097656 2.203125 21.140625 2.921875 Z M 11.671875 -6.78125 C 12.859375 -6.78125 13.640625 -7.179688 14.015625 -7.984375 C 14.390625 -8.796875 14.578125 -10.285156 14.578125 -12.453125 L 14.578125 -32.40625 C 14.578125 -34.613281 14.390625 -36.109375 14.015625 -36.890625 C 13.640625 -37.679688 12.859375 -38.078125 11.671875 -38.078125 C 10.503906 -38.078125 9.734375 -37.679688 9.359375 -36.890625 C 8.984375 -36.109375 8.796875 -34.613281 8.796875 -32.40625 L 8.796875 -12.453125 C 8.796875 -10.285156 8.984375 -8.796875 9.359375 -7.984375 C 9.734375 -7.179688 10.503906 -6.78125 11.671875 -6.78125 Z M 11.671875 -6.78125 "/></g></g></g><g fill="#231f20" fill-opacity="1"><g transform="translate(24.183453, 50.585236)"><g><path d="M 11.671875 0.5625 C 8.335938 0.5625 5.800781 -0.414062 4.0625 -2.375 C 2.320312 -4.34375 1.453125 -7.585938 1.453125 -12.109375 L 1.453125 -44.859375 L 8.796875 -44.859375 L 8.796875 -12.453125 C 8.796875 -10.285156 8.984375 -8.796875 9.359375 -7.984375 C 9.734375 -7.179688 10.503906 -6.78125 11.671875 -6.78125 C 12.859375 -6.78125 13.640625 -7.179688 14.015625 -7.984375 C 14.390625 -8.796875 14.578125 -10.285156 14.578125 -12.453125 L 14.578125 -44.859375 L 21.921875 -44.859375 L 21.921875 -12.109375 C 21.921875 -7.585938 21.050781 -4.34375 19.3125 -2.375 C 17.582031 -0.414062 15.035156 0.5625 11.671875 0.5625 Z M 11.671875 0.5625 "/></g></g></g><g fill="#231f20" fill-opacity="1"><g transform="translate(47.569016, 50.585236)"><g><path d="M 1.453125 0 L 1.453125 -44.859375 L 8.796875 -44.859375 L 8.796875 0 Z M 1.453125 0 "/></g></g></g><g fill="#231f20" fill-opacity="1"><g transform="translate(57.831751, 50.585236)"><g><path d="M 11.671875 0.5625 C 8.335938 0.5625 5.800781 -0.414062 4.0625 -2.375 C 2.320312 -4.34375 1.453125 -7.585938 1.453125 -12.109375 L 1.453125 -32.75 C 1.453125 -37.269531 2.320312 -40.507812 4.0625 -42.46875 C 5.800781 -44.4375 8.335938 -45.421875 11.671875 -45.421875 C 15.035156 -45.421875 17.582031 -44.4375 19.3125 -42.46875 C 21.050781 -40.507812 21.921875 -37.269531 21.921875 -32.75 L 21.921875 -26.640625 L 14.578125 -26.640625 L 14.578125 -32.40625 C 14.578125 -34.613281 14.390625 -36.109375 14.015625 -36.890625 C 13.640625 -37.679688 12.859375 -38.078125 11.671875 -38.078125 C 10.503906 -38.078125 9.734375 -37.679688 9.359375 -36.890625 C 8.984375 -36.109375 8.796875 -34.613281 8.796875 -32.40625 L 8.796875 -12.453125 C 8.796875 -10.285156 8.984375 -8.796875 9.359375 -7.984375 C 9.734375 -7.179688 10.503906 -6.78125 11.671875 -6.78125 C 12.859375 -6.78125 13.640625 -7.179688 14.015625 -7.984375 C 14.390625 -8.796875 14.578125 -10.285156 14.578125 -12.453125 L 14.578125 -18.21875 L 21.921875 -18.21875 L 21.921875 -12.109375 C 21.921875 -7.585938 21.050781 -4.34375 19.3125 -2.375 C 17.582031 -0.414062 15.035156 0.5625 11.671875 0.5625 Z M 11.671875 0.5625 "/></g></g></g><g fill="#231f20" fill-opacity="1"><g transform="translate(81.217315, 50.585236)"><g><path d="M 1.453125 0 L 1.453125 -44.859375 L 8.796875 -44.859375 L 8.796875 0 Z M 15.53125 0 L 8.796875 -22.4375 L 15.53125 -44.859375 L 23.15625 -44.859375 L 16.15625 -22.4375 L 23.15625 0 Z M 15.53125 0 "/></g></g></g><g fill="#231f20" fill-opacity="1"><g transform="translate(105.83666, 50.585236)"><g><path d="M 1.453125 0 L 1.453125 -44.859375 L 9.875 -44.859375 C 12.863281 -44.859375 15.1875 -44.472656 16.84375 -43.703125 C 18.507812 -42.941406 19.675781 -41.703125 20.34375 -39.984375 C 21.019531 -38.265625 21.359375 -35.945312 21.359375 -33.03125 L 21.359375 -32.359375 C 21.359375 -29.847656 20.910156 -27.9375 20.015625 -26.625 C 19.117188 -25.320312 18.035156 -24.351562 16.765625 -23.71875 C 18.179688 -23.050781 19.410156 -21.96875 20.453125 -20.46875 C 21.503906 -18.96875 22.03125 -16.78125 22.03125 -13.90625 L 22.03125 -11.609375 C 22.03125 -8.835938 21.644531 -6.609375 20.875 -4.921875 C 20.113281 -3.242188 18.851562 -2.015625 17.09375 -1.234375 C 15.34375 -0.453125 12.9375 -0.0390625 9.875 0 Z M 8.796875 -26.96875 L 10.375 -26.96875 C 11.644531 -26.96875 12.566406 -27.273438 13.140625 -27.890625 C 13.722656 -28.515625 14.015625 -29.703125 14.015625 -31.453125 L 14.015625 -33.03125 C 14.015625 -34.789062 13.789062 -35.976562 13.34375 -36.59375 C 12.894531 -37.207031 11.90625 -37.515625 10.375 -37.515625 L 8.796875 -37.515625 Z M 8.796875 -7.34375 L 10.375 -7.34375 C 12.09375 -7.34375 13.238281 -7.675781 13.8125 -8.34375 C 14.394531 -9.019531 14.6875 -10.257812 14.6875 -12.0625 L 14.6875 -14.796875 C 14.6875 -16.554688 14.359375 -17.800781 13.703125 -18.53125 C 13.054688 -19.257812 11.945312 -19.625 10.375 -19.625 L 8.796875 -19.625 Z M 8.796875 -7.34375 "/></g></g></g><g fill="#231f20" fill-opacity="1"><g transform="translate(129.334392, 50.585236)"><g><path d="M 1.453125 0 L 1.453125 -44.859375 L 8.796875 -44.859375 L 8.796875 0 Z M 1.453125 0 "/></g></g></g><g fill="#231f20" fill-opacity="1"><g transform="translate(139.597127, 50.585236)"><g><path d="M 7.453125 0 L 7.453125 -37.515625 L 1.453125 -37.515625 L 1.453125 -44.859375 L 20.8125 -44.859375 L 20.8125 -37.515625 L 14.796875 -37.515625 L 14.796875 0 Z M 7.453125 0 "/></g></g></g><g fill="#231f20" fill-opacity="1"><g transform="translate(161.861077, 50.585236)"><g><path d="M 1.453125 0 L 1.453125 -44.859375 L 16.828125 -44.859375 L 16.828125 -37.515625 L 8.796875 -37.515625 L 8.796875 -26.078125 L 16.828125 -26.078125 L 16.828125 -18.78125 L 8.796875 -18.78125 L 8.796875 -7.34375 L 16.828125 -7.34375 L 16.828125 0 Z M 1.453125 0 "/></g></g></g></g></g><g transform="matrix(1, 0, 0, 1, 107, 173)"><g clip-path="url(#2f950937c3)"><g fill="#000000" fill-opacity="1"><g transform="translate(1.228125, 12.051823)"><g><path d="M 1.84375 0 L 0.953125 0 L 0.953125 -8.640625 L 1.84375 -8.640625 L 1.84375 -4.75 L 5.765625 -4.75 L 5.765625 -8.640625 L 6.65625 -8.640625 L 6.65625 0 L 5.765625 0 L 5.765625 -3.859375 L 1.84375 -3.859375 Z M 1.84375 0 "/></g></g></g><g fill="#000000" fill-opacity="1"><g transform="translate(12.882999, 12.051823)"><g><path d="M 8.5625 -4.34375 C 8.5625 -5.320312 8.210938 -6.15625 7.515625 -6.84375 C 6.828125 -7.539062 5.988281 -7.890625 5 -7.890625 C 4.03125 -7.890625 3.195312 -7.539062 2.5 -6.84375 C 1.800781 -6.15625 1.453125 -5.320312 1.453125 -4.34375 C 1.453125 -3.363281 1.800781 -2.523438 2.5 -1.828125 C 3.195312 -1.128906 4.03125 -0.78125 5 -0.78125 C 5.988281 -0.78125 6.828125 -1.128906 7.515625 -1.828125 C 8.210938 -2.523438 8.5625 -3.363281 8.5625 -4.34375 Z M 9.453125 -4.34375 C 9.453125 -3.738281 9.335938 -3.160156 9.109375 -2.609375 C 8.867188 -2.066406 8.550781 -1.597656 8.15625 -1.203125 C 7.75 -0.796875 7.273438 -0.476562 6.734375 -0.25 C 6.191406 -0.0078125 5.613281 0.109375 5 0.109375 C 4.394531 0.109375 3.828125 -0.0078125 3.296875 -0.25 C 2.753906 -0.476562 2.28125 -0.796875 1.875 -1.203125 C 1.46875 -1.597656 1.148438 -2.066406 0.921875 -2.609375 C 0.691406 -3.160156 0.578125 -3.738281 0.578125 -4.34375 C 0.578125 -4.957031 0.691406 -5.535156 0.921875 -6.078125 C 1.148438 -6.617188 1.46875 -7.085938 1.875 -7.484375 C 2.28125 -7.878906 2.753906 -8.195312 3.296875 -8.4375 C 3.828125 -8.664062 4.394531 -8.78125 5 -8.78125 C 5.613281 -8.78125 6.191406 -8.664062 6.734375 -8.4375 C 7.273438 -8.195312 7.75 -7.878906 8.15625 -7.484375 C 8.550781 -7.085938 8.867188 -6.617188 9.109375 -6.078125 C 9.335938 -5.535156 9.453125 -4.957031 9.453125 -4.34375 Z M 9.453125 -4.34375 "/></g></g></g><g fill="#000000" fill-opacity="1"><g transform="translate(26.950109, 12.051823)"><g><path d="M 8.921875 0 L 7.578125 -6.140625 L 4.984375 0.515625 L 2.375 -6.140625 L 1.046875 0 L 0.125 0 L 2.140625 -9.203125 L 4.984375 -1.8125 L 7.8125 -9.203125 L 9.8125 0 Z M 8.921875 0 "/></g></g></g><g fill="#000000" fill-opacity="1"><g transform="translate(40.941053, 12.051823)"><g><path d="M 6.078125 0 L 0.953125 0 L 0.953125 -8.640625 L 6.078125 -8.640625 L 6.078125 -7.8125 L 1.84375 -7.8125 L 1.84375 -4.734375 L 5.953125 -4.734375 L 5.953125 -3.90625 L 1.84375 -3.90625 L 1.84375 -0.828125 L 6.078125 -0.828125 Z M 6.078125 0 "/></g></g></g><g fill="#000000" fill-opacity="1"><g transform="translate(52.024603, 12.051823)"><g/></g></g><g fill="#000000" fill-opacity="1"><g transform="translate(59.502496, 12.051823)"><g><path d="M 1.84375 0 L 0.953125 0 L 0.953125 -8.640625 L 1.84375 -8.640625 L 1.84375 -4.578125 L 4.75 -8.640625 L 5.890625 -8.640625 L 2.71875 -4.3125 L 5.890625 0 L 4.75 0 L 1.84375 -4.046875 Z M 1.84375 0 "/></g></g></g><g fill="#000000" fill-opacity="1"><g transform="translate(69.570367, 12.051823)"><g><path d="M 1.84375 0 L 0.953125 0 L 0.953125 -8.640625 L 1.84375 -8.640625 Z M 1.84375 0 "/></g></g></g><g fill="#000000" fill-opacity="1"><g transform="translate(76.413459, 12.051823)"><g><path d="M 0.25 -7.84375 L 0.25 -8.65625 L 5.328125 -8.65625 L 5.328125 -7.84375 L 3.234375 -7.84375 L 3.234375 -0.03125 L 2.34375 -0.03125 L 2.34375 -7.84375 Z M 0.25 -7.84375 "/></g></g></g><g fill="#000000" fill-opacity="1"><g transform="translate(86.04968, 12.051823)"><g><path d="M 8.875 -2.640625 C 8.550781 -1.804688 8.023438 -1.140625 7.296875 -0.640625 C 6.566406 -0.128906 5.757812 0.125 4.875 0.125 C 3.6875 0.125 2.664062 -0.3125 1.8125 -1.1875 C 0.988281 -2.050781 0.578125 -3.09375 0.578125 -4.3125 C 0.578125 -4.90625 0.6875 -5.472656 0.90625 -6.015625 C 1.125 -6.554688 1.425781 -7.03125 1.8125 -7.4375 C 2.664062 -8.3125 3.6875 -8.75 4.875 -8.75 C 5.757812 -8.75 6.566406 -8.5 7.296875 -8 C 8.023438 -7.488281 8.546875 -6.828125 8.859375 -6.015625 L 7.890625 -6.015625 C 7.421875 -6.867188 6.726562 -7.429688 5.8125 -7.703125 C 5.5 -7.796875 5.144531 -7.84375 4.75 -7.84375 C 4.351562 -7.84375 3.945312 -7.75 3.53125 -7.5625 C 3.113281 -7.363281 2.753906 -7.101562 2.453125 -6.78125 C 1.785156 -6.09375 1.453125 -5.269531 1.453125 -4.3125 C 1.453125 -3.351562 1.785156 -2.53125 2.453125 -1.84375 C 3.117188 -1.132812 3.925781 -0.78125 4.875 -0.78125 C 5.519531 -0.78125 6.113281 -0.953125 6.65625 -1.296875 C 7.1875 -1.628906 7.601562 -2.078125 7.90625 -2.640625 Z M 8.875 -2.640625 "/></g></g></g><g fill="#000000" fill-opacity="1"><g transform="translate(99.355035, 12.051823)"><g><path d="M 1.84375 0 L 0.953125 0 L 0.953125 -8.640625 L 1.84375 -8.640625 L 1.84375 -4.75 L 5.765625 -4.75 L 5.765625 -8.640625 L 6.65625 -8.640625 L 6.65625 0 L 5.765625 0 L 5.765625 -3.859375 L 1.84375 -3.859375 Z M 1.84375 0 "/></g></g></g><g fill="#000000" fill-opacity="1"><g transform="translate(111.009909, 12.051823)"><g><path d="M 6.078125 0 L 0.953125 0 L 0.953125 -8.640625 L 6.078125 -8.640625 L 6.078125 -7.8125 L 1.84375 -7.8125 L 1.84375 -4.734375 L 5.953125 -4.734375 L 5.953125 -3.90625 L 1.84375 -3.90625 L 1.84375 -0.828125 L 6.078125 -0.828125 Z M 6.078125 0 "/></g></g></g><g fill="#000000" fill-opacity="1"><g transform="translate(122.093459, 12.051823)"><g><path d="M 1.84375 -6.359375 L 1.84375 0 L 0.953125 0 L 0.953125 -9.1875 L 5.8125 -2.28125 L 5.8125 -8.640625 L 6.6875 -8.640625 L 6.6875 0.53125 Z M 1.84375 -6.359375 "/></g></g></g></g></g></g></g></svg>